<svg xmlns="http://www.w3.org/2000/svg" viewBox="0 0 800 600" fill="none">
  <!-- Background elements -->
  <rect x="100" y="100" width="600" height="400" rx="20" fill="#F3F4F6" />
  <circle cx="400" cy="150" r="80" fill="#E5E7EB" />
  
  <!-- Screen/board -->
  <rect x="250" y="200" width="300" height="200" rx="8" fill="#ffffff" stroke="#D1D5DB" stroke-width="2" />
  <rect x="270" y="220" width="260" height="20" rx="4" fill="#3B82F6" opacity="0.8" />
  <rect x="270" y="250" width="130" height="12" rx="2" fill="#9CA3AF" />
  <rect x="270" y="270" width="200" height="12" rx="2" fill="#9CA3AF" />
  <rect x="270" y="290" width="180" height="12" rx="2" fill="#9CA3AF" />
  <rect x="270" y="310" width="220" height="12" rx="2" fill="#9CA3AF" />
  
  <!-- Video play icon -->
  <circle cx="400" cy="360" r="25" fill="#3B82F6" />
  <polygon points="395,348 395,372 415,360" fill="white" />
  
  <!-- Decorative elements -->
  <circle cx="170" cy="220" r="15" fill="#4F46E5" opacity="0.6" />
  <circle cx="630" cy="250" r="25" fill="#10B981" opacity="0.5" />
  <circle cx="600" cy="380" r="12" fill="#F59E0B" opacity="0.6" />
  <circle cx="200" cy="350" r="20" fill="#EC4899" opacity="0.4" />
  
  <!-- Abstract lines -->
  <path d="M150 400 Q 200 360, 250 400" stroke="#6366F1" stroke-width="3" opacity="0.6" stroke-linecap="round" />
  <path d="M550 220 Q 600 180, 650 220" stroke="#8B5CF6" stroke-width="3" opacity="0.6" stroke-linecap="round" />
  <path d="M550 400 Q 600 440, 650 400" stroke="#EC4899" stroke-width="3" opacity="0.6" stroke-linecap="round" />
</svg> 